<!DOCTYPE svg PUBLIC "-//W3C//DTD SVG 1.1//EN" "http://www.w3.org/Graphics/SVG/1.1/DTD/svg11.dtd">
<!-- Uploaded to: SVG Repo, www.svgrepo.com, Transformed by: SVG Repo Mixer Tools -->
<svg fill="#FFFFFF" width="800px" height="800px" viewBox="-51.2 -51.2 614.40 614.40" id="_x30_1" version="1.1" xml:space="preserve" xmlns="http://www.w3.org/2000/svg" xmlns:xlink="http://www.w3.org/1999/xlink" stroke="#FFFFFF" stroke-width="19.968">
<g id="SVGRepo_bgCarrier" stroke-width="0" transform="translate(10.240000000000009,10.240000000000009), scale(0.96)">
<rect x="-51.2" y="-51.2" width="614.40" height="614.40" rx="307.2" fill="#e0e0e0" strokewidth="0"/>
</g>
<g id="SVGRepo_tracerCarrier" stroke-linecap="round" stroke-linejoin="round"/>
<g id="SVGRepo_iconCarrier"> <g> <circle cx="256" cy="274.031" r="60.938"/> <path d="M256,0C114.615,0,0,114.615,0,256s114.615,256,256,256s256-114.615,256-256S397.385,0,256,0z M412,365.438 C412,385.63,395.63,402,375.438,402H136.562C116.37,402,100,385.63,100,365.438V182.625c0-20.193,16.37-36.562,36.562-36.562 h39.812l13.132-39.396C192.825,96.714,202.139,90,212.631,90h86.738c10.492,0,19.806,6.714,23.124,16.667l13.132,39.396h39.812 c20.193,0,36.562,16.37,36.562,36.562V365.438z"/> </g> </g>
</svg>